<?xml version="1.0" standalone="no"?>
<!DOCTYPE svg PUBLIC "-//W3C//DTD SVG 20010904//EN"
 "http://www.w3.org/TR/2001/REC-SVG-20010904/DTD/svg10.dtd">
<svg version="1.0" xmlns="http://www.w3.org/2000/svg"
 width="169.000000pt" height="169.000000pt" viewBox="0 0 169.000000 169.000000"
 preserveAspectRatio="xMidYMid meet">
<metadata>
Created by potrace 1.11, written by Peter Selinger 2001-2013
</metadata>
<g transform="translate(0.000000,169.000000) scale(0.100000,-0.100000)"
fill="#000000" stroke="none">
<path d="M1658 863 c2 -712 2 -729 -18 -761 -11 -18 -34 -41 -52 -52 -32 -20
-49 -20 -761 -18 -400 2 -727 2 -727 1 0 -1 13 -9 30 -18 25 -13 123 -15 745
-15 790 0 755 -3 795 63 19 31 20 56 20 750 0 624 -2 722 -15 747 -9 17 -17
30 -18 30 -1 0 -1 -327 1 -727z"/>
<path d="M740 1509 c-187 -23 -327 -97 -383 -203 -31 -58 -31 -182 -1 -223 51
-68 144 -99 335 -110 60 -3 112 -10 115 -15 3 -5 -12 -29 -33 -53 l-38 -45
-93 5 c-207 12 -365 69 -393 142 -5 14 -14 21 -20 17 -37 -22 -53 -169 -24
-224 33 -63 118 -103 263 -123 45 -6 82 -15 82 -19 0 -14 -105 -91 -158 -115
-66 -31 -82 -26 -82 25 0 74 -83 109 -144 61 -21 -16 -26 -29 -26 -64 0 -36 5
-48 28 -65 23 -19 36 -22 97 -17 39 2 88 13 110 23 58 27 145 87 179 123 27
28 35 31 93 31 101 0 348 -29 387 -45 43 -18 70 -56 61 -85 -6 -19 -5 -20 13
-11 63 34 108 133 90 198 -20 72 -88 106 -248 124 -52 6 -114 13 -138 16 l-43
4 43 49 43 49 95 -5 c191 -11 327 -53 370 -114 35 -49 38 -115 7 -176 -24 -48
-195 -248 -206 -241 -45 25 -129 60 -181 74 -97 27 -327 24 -435 -5 -124 -34
-236 -93 -316 -170 -100 -93 -105 -108 -26 -71 183 85 439 81 719 -12 l90 -29
211 212 c224 225 268 280 293 366 17 57 9 124 -20 181 -19 36 -75 85 -128 112
-51 26 -218 69 -269 69 -21 0 -40 4 -44 9 -7 13 138 137 236 204 74 49 95 76
53 68 -43 -8 -72 -3 -132 23 -116 50 -291 72 -432 55z m-10 -83 c36 -8 90 -26
120 -39 58 -26 200 -122 200 -135 0 -4 -18 -27 -38 -51 l-38 -43 -145 12
c-210 17 -299 40 -356 93 -36 32 -31 82 12 123 54 51 133 64 245 40z"/>
</g>
</svg>
